<?xml version="1.0" encoding="utf-8"?>
<!-- Generator: Adobe Illustrator 16.0.3, SVG Export Plug-In . SVG Version: 6.00 Build 0)  -->
<!DOCTYPE svg PUBLIC "-//W3C//DTD SVG 1.1//EN" "http://www.w3.org/Graphics/SVG/1.1/DTD/svg11.dtd">
<svg version="1.1" id="Github" xmlns="http://www.w3.org/2000/svg" xmlns:xlink="http://www.w3.org/1999/xlink" x="0px" y="0px"
	 width="552px" height="468px" viewBox="24 66 552 468" enable-background="new 24 66 552 468" xml:space="preserve">
<path fill="#FFFFFF" d="M395.4,339.27c-21.54,0-39,24.211-39,53.971c0,29.819,17.46,54.029,39,54.029s39-24.21,39-54.029
	C434.37,363.48,416.94,339.27,395.4,339.27z M531.18,198.78c4.471-10.95,4.65-73.17-19.05-132.78c0,0-54.33,5.97-136.53,62.4
	c-17.25-4.8-46.439-7.14-75.57-7.14c-29.19,0-58.35,2.34-75.6,7.14C142.2,71.97,87.87,66,87.87,66
	C64.2,125.61,64.44,187.83,68.85,198.78C41.01,229.02,24,265.35,24,314.91c0,215.58,178.89,219.03,224.01,219.03
	c10.26,0,30.54,0.06,52.02,0.06c21.451,0,41.76-0.06,51.96-0.06c45.18,0,224.01-3.45,224.01-219.03
	C576,265.35,559.02,229.02,531.18,198.78z M300.84,507.45h-1.68c-113.13,0-201.27-13.47-201.27-123.45
	c0-26.37,9.3-50.79,31.41-71.07C166.11,279.12,228.45,297,299.16,297c0.3,0,0.6,0,0.87,0c0.3,0,0.541,0,0.81,0
	c70.71,0,133.08-17.88,169.92,15.93c22.051,20.28,31.351,44.7,31.351,71.07C502.11,493.98,414,507.45,300.84,507.45z M204.63,339.27
	c-21.54,0-39,24.211-39,53.971c0,29.819,17.46,54.029,39,54.029c21.57,0,39.03-24.21,39.03-54.029
	C243.66,363.48,226.2,339.27,204.63,339.27z"/>
</svg>
